<?xml version="1.0" encoding="UTF-8"?>
<svg version="1.1" xmlns="http://www.w3.org/2000/svg" width="182" height="69">
<path d="M0 0 C2.64470463 2.8713936 3 4.12702922 3 8 C3.99 8.495 3.99 8.495 5 9 C5 9.99 5 10.98 5 12 C6.98 12.495 6.98 12.495 9 13 C9.75 14.75 9.75 14.75 10 17 C8.0107024 19.52487772 6.11888735 20.93364427 3.3125 22.5 C0.83366727 23.78099598 0.83366727 23.78099598 0.1875 26.1875 C0.125625 26.785625 0.06375 27.38375 0 28 C-1.65 28.33 -3.3 28.66 -5 29 C-5.33 34.94 -5.66 40.88 -6 47 C-0.06 47 5.88 47 12 47 C12 49.64 12 52.28 12 55 C2.1 55 -7.8 55 -18 55 C-18 48.73 -18 42.46 -18 36 C-18.66 36 -19.32 36 -20 36 C-20 35.01 -20 34.02 -20 33 C-19.34 33 -18.68 33 -18 33 C-18.33 32.34 -18.66 31.68 -19 31 C-19.99 31.33 -20.98 31.66 -22 32 C-22 34.64 -22 37.28 -22 40 C-28.27 40 -34.54 40 -41 40 C-41 38.68 -41 37.36 -41 36 C-42.485 36.495 -42.485 36.495 -44 37 C-44.91762305 38.93090961 -44.91762305 38.93090961 -45.5 41.25 C-47.12857789 46.49302371 -48.49217862 49.78718715 -52.875 53.3125 C-58.27629385 56.0701226 -64.1342674 56.04672401 -70 55 C-74.01912863 53.07589711 -77.46062626 50.68837678 -81 48 C-81.66 47.67 -82.32 47.34 -83 47 C-83.99 47.495 -83.99 47.495 -85 48 C-84.505 48.78375 -84.01 49.5675 -83.5 50.375 C-82 53 -82 53 -82 55 C-93.79192825 55.92017937 -93.79192825 55.92017937 -96.75390625 53.6640625 C-97.8125 52 -97.8125 52 -99 49 C-102.45411499 49.70079254 -102.45411499 49.70079254 -106 51 C-106.66 52.32 -107.32 53.64 -108 55 C-116.415 55.495 -116.415 55.495 -125 56 C-125.33 57.65 -125.66 59.3 -126 61 C-128.475 61.495 -128.475 61.495 -131 62 C-131.66 60.35 -132.32 58.7 -133 57 C-133.680625 57.680625 -134.36125 58.36125 -135.0625 59.0625 C-138 61 -138 61 -141.8125 60.75 C-142.864375 60.5025 -143.91625 60.255 -145 60 C-145 59.34 -145 58.68 -145 58 C-147.35171131 58.59861742 -149.6859378 59.26924352 -152 60 C-152.33 60.66 -152.66 61.32 -153 62 C-154.98 61.67 -156.96 61.34 -159 61 C-159 60.34 -159 59.68 -159 59 C-160.27875 58.87625 -161.5575 58.7525 -162.875 58.625 C-166.75 58.25 -166.75 58.25 -169 56 C-168.625 52.875 -168.625 52.875 -168 50 C-167.34 50 -166.68 50 -166 50 C-166 49.34 -166 48.68 -166 48 C-165.195625 47.401875 -164.39125 46.80375 -163.5625 46.1875 C-160.76960303 44.29752109 -160.76960303 44.29752109 -160.6875 41.625 C-159.82068761 38.3153527 -158.80291132 38.01807394 -156 36.1875 C-152.45468128 33.68881704 -152.45468128 33.68881704 -151.0625 29.5 C-151.041875 28.015 -151.02125 26.53 -151 25 C-150.67 20.38 -150.34 15.76 -150 11 C-136.14 11 -122.28 11 -108 11 C-104 18 -104 18 -104 20 C-102.35 19.67 -100.7 19.34 -99 19 C-98.896875 18.236875 -98.79375 17.47375 -98.6875 16.6875 C-97.91387376 13.66332471 -97.50933004 12.7983532 -95 11 C-91.86328125 10.70703125 -91.86328125 10.70703125 -88.3125 10.8125 C-86.54326172 10.85310547 -86.54326172 10.85310547 -84.73828125 10.89453125 C-83.83464844 10.92933594 -82.93101563 10.96414063 -82 11 C-82 11.66 -82 12.32 -82 13 C-81.20464844 12.79246094 -80.40929687 12.58492187 -79.58984375 12.37109375 C-64.80271869 8.59128317 -49.89384499 5.32782595 -35 2 C-35 1.34 -35 0.68 -35 0 C-34.34 0 -33.68 0 -33 0 C-33 0.66 -33 1.32 -33 2 C-32.33355469 1.86722656 -31.66710937 1.73445312 -30.98046875 1.59765625 C-9.70092307 -2.47968327 -9.70092307 -2.47968327 0 0 Z M-31.875 4.3125 C-33.16019531 4.52583984 -34.44539063 4.73917969 -35.76953125 4.95898438 C-43.61653756 6.29337377 -51.31224354 7.93684073 -59 10 C-54.38465355 13.07689763 -51.22805469 13.20957468 -45.83984375 12.45703125 C-43.52000266 11.88076499 -42.36030481 10.95543816 -41 9 C-41 9.66 -41 10.32 -41 11 C-39.35 11 -37.7 11 -36 11 C-35.67 10.34 -35.34 9.68 -35 9 C-33.1796875 8.40234375 -33.1796875 8.40234375 -30.875 7.9375 C-30.06933594 7.77378906 -29.26367188 7.61007813 -28.43359375 7.44140625 C-25.29584689 6.87228041 -22.16324086 6.40381798 -19 6 C-19 6.66 -19 7.32 -19 8 C-18.34 8 -17.68 8 -17 8 C-17 8.66 -17 9.32 -17 10 C-14.69 10 -12.38 10 -10 10 C-10 8.35 -10 6.7 -10 5 C-9.01 4.67 -8.02 4.34 -7 4 C-7 3.34 -7 2.68 -7 2 C-15.49266279 1.58520729 -23.52521858 2.85982118 -31.875 4.3125 Z M-3 3 C-2.34 4.32 -1.68 5.64 -1 7 C-0.67 5.68 -0.34 4.36 0 3 C-0.99 3 -1.98 3 -3 3 Z M-28 7 C-28 7.66 -28 8.32 -28 9 C-28.99 9.495 -28.99 9.495 -30 10 C-29.01 10 -28.02 10 -27 10 C-27.33 9.01 -27.66 8.02 -28 7 Z M-9 8 C-9 8.66 -9 9.32 -9 10 C-8.34 9.67 -7.68 9.34 -7 9 C-7.66 8.67 -8.32 8.34 -9 8 Z M0 8 C-0.33 8.66 -0.66 9.32 -1 10 C-0.01 10.33 0.98 10.66 2 11 C1.67 10.01 1.34 9.02 1 8 C0.67 8 0.34 8 0 8 Z M-6 13 C-5.4225 13.28875 -4.845 13.5775 -4.25 13.875 C-3.5075 14.24625 -2.765 14.6175 -2 15 C-0.948125 15.495 -0.948125 15.495 0.125 16 C2 17 2 17 4 19 C4.99 18.34 5.98 17.68 7 17 C7 16.34 7 15.68 7 15 C2.50343896 12.75171948 -1.07872966 12.83317728 -6 13 Z M-31 13 C-30.67 13.99 -30.34 14.98 -30 16 C-31.32 16 -32.64 16 -34 16 C-34.33 15.34 -34.66 14.68 -35 14 C-40.12583611 13.89748328 -44.94997778 13.96409801 -50 15 C-49.34 16.32 -48.68 17.64 -48 19 C-47.01 22.3 -46.02 25.6 -45 29 C-37.41 25.7 -29.82 22.4 -22 19 C-23.32 18.01 -24.64 17.02 -26 16 C-26.33 15.01 -26.66 14.02 -27 13 C-28.32 13 -29.64 13 -31 13 Z M-6 17 C-6 18.98 -6 20.96 -6 23 C-5.01 22.67 -4.02 22.34 -3 22 C-3.66 20.35 -4.32 18.7 -5 17 C-5.33 17 -5.66 17 -6 17 Z M-119 16 C-119 16.99 -119 17.98 -119 19 C-125.27 19 -131.54 19 -138 19 C-138 22.3 -138 25.6 -138 29 C-130.21406284 27.38911645 -122.62571782 25.23456312 -115 23 C-116.07401108 20.08482708 -116.77810176 18.22189824 -119 16 Z M-71 24 C-71.42272004 28.3645844 -71.28796172 32.62938103 -71 37 C-68.68632778 36.35814255 -66.3741043 35.71172608 -64.0625 35.0625 C-63.40314453 34.88009766 -62.74378906 34.69769531 -62.06445312 34.50976562 C-58.76178827 33.77403899 -58.76178827 33.77403899 -56 32 C-55.95607053 27.66855394 -56.2841806 24.04816412 -58.75 20.4375 C-64.09682708 17.02147159 -67.66822748 18.95474447 -71 24 Z M-88 21 C-90.60344154 24.43541091 -92.54924236 27.93902095 -94 32 C-93.6186466 35.59380532 -93.6186466 35.59380532 -92 38 C-91.67 37.34 -91.34 36.68 -91 36 C-90.236875 36.020625 -89.47375 36.04125 -88.6875 36.0625 C-85.89814214 36.12942841 -85.89814214 36.12942841 -83 35 C-82.86722656 34.09636719 -82.73445313 33.19273438 -82.59765625 32.26171875 C-82.33275391 30.49248047 -82.33275391 30.49248047 -82.0625 28.6875 C-81.80146484 26.92986328 -81.80146484 26.92986328 -81.53515625 25.13671875 C-81 22 -81 22 -80 19 C-83.34774198 19 -84.94660541 19.41458358 -88 21 Z M-27.0625 23.3125 C-32.62010536 25.96643138 -38.08546157 28.23601485 -44 30 C-43.67 31.32 -43.34 32.64 -43 34 C-42.02160156 33.73445313 -41.04320313 33.46890625 -40.03515625 33.1953125 C-33.05093394 31.31004468 -26.0814947 29.49084099 -19 28 C-18.67 25.36 -18.34 22.72 -18 20 C-21.32363862 20 -24.11953596 21.88377594 -27.0625 23.3125 Z M-118.125 28.5 C-119.21167969 28.91765625 -119.21167969 28.91765625 -120.3203125 29.34375 C-120.87460938 29.5603125 -121.42890625 29.776875 -122 30 C-122 32.31 -122 34.62 -122 37 C-123.65 37 -125.3 37 -127 37 C-127 37.66 -127 38.32 -127 39 C-127.66 39 -128.32 39 -129 39 C-129 38.34 -129 37.68 -129 37 C-130.98 37 -132.96 37 -135 37 C-135 37.66 -135 38.32 -135 39 C-135.99 39 -136.98 39 -138 39 C-138 41.31 -138 43.62 -138 46 C-134.93675381 45.88576707 -131.87489086 45.75902148 -128.8125 45.625 C-127.94818359 45.5940625 -127.08386719 45.563125 -126.19335938 45.53125 C-119.83640072 45.30726471 -119.83640072 45.30726471 -114 43 C-111.73356474 40.27277649 -110.19490083 37.33648638 -109 34 C-109.4333259 31.07488547 -109.4333259 31.07488547 -111 29 C-111.33 28.34 -111.66 27.68 -112 27 C-114.36543716 27 -115.92304264 27.64762941 -118.125 28.5 Z M-158 40 C-158 40.99 -158 41.98 -158 43 C-155.0280615 41.87548273 -152.66559313 40.77706209 -150 39 C-150 38.34 -150 37.68 -150 37 C-153.08009879 37 -155.31135136 38.5972268 -158 40 Z M-58 39 C-62.29 39.66 -66.58 40.32 -71 41 C-69.5 45 -69.5 45 -67 46 C-63.54199641 46.41673207 -63.54199641 46.41673207 -60 46 C-57.88998841 44.32743384 -57.88998841 44.32743384 -57 42 C-57.33 41.01 -57.66 40.02 -58 39 Z M-151 42 C-151.99 42.66 -152.98 43.32 -154 44 C-152.68 44.33 -151.36 44.66 -150 45 C-150.33 44.01 -150.66 43.02 -151 42 Z M-163.125 49.5 C-164.07375 50.325 -165.0225 51.15 -166 52 C-165.67 53.32 -165.34 54.64 -165 56 C-162.58354218 56.16687448 -162.58354218 56.16687448 -160 56 C-159.34 55.34 -158.68 54.68 -158 54 C-155.375 53.875 -155.375 53.875 -153 54 C-152.67 54.66 -152.34 55.32 -152 56 C-151.01 55.67 -150.02 55.34 -149 55 C-149.33 52.69 -149.66 50.38 -150 48 C-151.65 47.67 -153.3 47.34 -155 47 C-155.33 47.99 -155.66 48.98 -156 50 C-156.66 49.01 -157.32 48.02 -158 47 C-160.58926331 47 -161.20051661 47.82653618 -163.125 49.5 Z M-119 47 C-118.67 47.99 -118.34 48.98 -118 50 C-117.67 49.01 -117.34 48.02 -117 47 C-117.66 47 -118.32 47 -119 47 Z " fill="#111111" transform="translate(169,2)"/>
<path d="M0 0 C2.64470463 2.8713936 3 4.12702922 3 8 C3.99 8.495 3.99 8.495 5 9 C5 9.99 5 10.98 5 12 C6.32 12.33 7.64 12.66 9 13 C9.75 14.75 9.75 14.75 10 17 C8.0107024 19.52487772 6.11888735 20.93364427 3.3125 22.5 C0.83366727 23.78099598 0.83366727 23.78099598 0.1875 26.1875 C0.0946875 27.0846875 0.0946875 27.0846875 0 28 C-1.65 28.33 -3.3 28.66 -5 29 C-5.33 34.94 -5.66 40.88 -6 47 C-0.06 47 5.88 47 12 47 C12 49.64 12 52.28 12 55 C2.1 55 -7.8 55 -18 55 C-18 48.73 -18 42.46 -18 36 C-18.66 36 -19.32 36 -20 36 C-20 35.01 -20 34.02 -20 33 C-19.34 33 -18.68 33 -18 33 C-18.33 32.34 -18.66 31.68 -19 31 C-19.99 31.33 -20.98 31.66 -22 32 C-22 34.64 -22 37.28 -22 40 C-28.27 40 -34.54 40 -41 40 C-41 38.68 -41 37.36 -41 36 C-42.98 36.495 -42.98 36.495 -45 37 C-45.48828125 31.04296875 -45.48828125 31.04296875 -45 29 C-41.0697443 25.99089798 -36.22165281 24.25339294 -31.6875 22.3125 C-30.94693359 21.99216797 -30.20636719 21.67183594 -29.44335938 21.34179688 C-27.63025587 20.55806826 -25.81531171 19.7786002 -24 19 C-24.495 18.566875 -24.99 18.13375 -25.5 17.6875 C-27 16 -27 16 -27 13 C-27.99 13.33 -28.98 13.66 -30 14 C-30 14.66 -30 15.32 -30 16 C-31.32 16.33 -32.64 16.66 -34 17 C-34.495 15.515 -34.495 15.515 -35 14 C-36.68029297 14.26876953 -36.68029297 14.26876953 -38.39453125 14.54296875 C-39.8670593 14.75868942 -41.33972307 14.97348512 -42.8125 15.1875 C-43.55048828 15.30802734 -44.28847656 15.42855469 -45.04882812 15.55273438 C-47.20703125 15.85546875 -47.20703125 15.85546875 -51 16 C-51.99 15.01 -52.98 14.02 -54 13 C-50.7 12.34 -47.4 11.68 -44 11 C-44 10.34 -44 9.68 -44 9 C-43.01 9 -42.02 9 -41 9 C-41 9.66 -41 10.32 -41 11 C-39.35 11 -37.7 11 -36 11 C-35.67 10.01 -35.34 9.02 -35 8 C-29.92679142 5.96418454 -24.39500547 5.7704253 -19 6 C-19 6.66 -19 7.32 -19 8 C-18.34 8 -17.68 8 -17 8 C-17 8.66 -17 9.32 -17 10 C-14.69 10 -12.38 10 -10 10 C-10.061875 9.236875 -10.12375 8.47375 -10.1875 7.6875 C-9.96596688 4.51219194 -9.28224968 4.04264341 -7 2 C-23.82003519 3.9231793 -40.73808742 6.25765072 -57.14086914 10.56176758 C-59.70007003 11.16501979 -62.12587016 11.09373964 -64.75 11.0625 C-65.73484375 11.05347656 -66.7196875 11.04445313 -67.734375 11.03515625 C-68.48203125 11.02355469 -69.2296875 11.01195312 -70 11 C-66.43062691 8.94800358 -62.83124119 8.15937305 -58.828125 7.2734375 C-58.1457074 7.12089508 -57.46328979 6.96835266 -56.76019287 6.81118774 C-54.59118994 6.32752724 -52.42065847 5.85116926 -50.25 5.375 C-48.77463259 5.04735641 -47.29937084 4.71923665 -45.82421875 4.390625 C-42.21735322 3.58823118 -38.60908111 2.79237635 -35 2 C-35 1.34 -35 0.68 -35 0 C-34.34 0 -33.68 0 -33 0 C-33 0.66 -33 1.32 -33 2 C-32.00033203 1.80083984 -32.00033203 1.80083984 -30.98046875 1.59765625 C-9.70092307 -2.47968327 -9.70092307 -2.47968327 0 0 Z M-3 3 C-2.34 4.32 -1.68 5.64 -1 7 C-0.67 5.68 -0.34 4.36 0 3 C-0.99 3 -1.98 3 -3 3 Z M-28 7 C-28 7.66 -28 8.32 -28 9 C-28.99 9.495 -28.99 9.495 -30 10 C-29.01 10 -28.02 10 -27 10 C-27.33 9.01 -27.66 8.02 -28 7 Z M-9 8 C-9 8.66 -9 9.32 -9 10 C-8.34 9.67 -7.68 9.34 -7 9 C-7.66 8.67 -8.32 8.34 -9 8 Z M0 8 C-0.33 8.66 -0.66 9.32 -1 10 C-0.01 10.33 0.98 10.66 2 11 C1.67 10.01 1.34 9.02 1 8 C0.67 8 0.34 8 0 8 Z M-6 13 C-5.4225 13.28875 -4.845 13.5775 -4.25 13.875 C-3.5075 14.24625 -2.765 14.6175 -2 15 C-0.948125 15.495 -0.948125 15.495 0.125 16 C2 17 2 17 4 19 C4.99 18.34 5.98 17.68 7 17 C7 16.34 7 15.68 7 15 C2.50343896 12.75171948 -1.07872966 12.83317728 -6 13 Z M-6 17 C-6 18.98 -6 20.96 -6 23 C-5.01 22.67 -4.02 22.34 -3 22 C-3.66 20.35 -4.32 18.7 -5 17 C-5.33 17 -5.66 17 -6 17 Z M-27.0625 23.3125 C-32.62010536 25.96643138 -38.08546157 28.23601485 -44 30 C-43.67 31.32 -43.34 32.64 -43 34 C-42.02160156 33.73445313 -41.04320312 33.46890625 -40.03515625 33.1953125 C-33.05093394 31.31004468 -26.0814947 29.49084099 -19 28 C-18.67 25.36 -18.34 22.72 -18 20 C-21.32363862 20 -24.11953596 21.88377594 -27.0625 23.3125 Z " fill="#CFCFCF" transform="translate(169,2)"/>
<path d="M0 0 C0.66 0.33 1.32 0.66 2 1 C2 1.66 2 2.32 2 3 C2.5775 3.226875 3.155 3.45375 3.75 3.6875 C7.56083774 5.91048868 9.61929664 8.85788992 11 13 C12.30161513 31.63169086 12.30161513 31.63169086 7.52734375 38.36328125 C2.97849689 43.23787673 -0.73946095 44.27094892 -7.25 44.6875 C-14.2658876 44.46825351 -20.0774579 42.09163706 -25 37 C-26.51502864 31.8991498 -26.25405703 26.29882923 -26.3125 21 C-26.34150391 20.1234375 -26.37050781 19.246875 -26.40039062 18.34375 C-26.45567485 12.69625363 -25.81624019 9.44887894 -22 5 C-15.90288219 -1.21270298 -8.19303735 -0.75264123 0 0 Z M-15 13 C-15.42272004 17.3645844 -15.28796172 21.62938103 -15 26 C-12.68632778 25.35814255 -10.3741043 24.71172608 -8.0625 24.0625 C-7.40314453 23.88009766 -6.74378906 23.69769531 -6.06445312 23.50976562 C-2.76178827 22.77403899 -2.76178827 22.77403899 0 21 C0.04392947 16.66855394 -0.2841806 13.04816412 -2.75 9.4375 C-8.09682708 6.02147159 -11.66822748 7.95474447 -15 13 Z M-2 28 C-6.29 28.66 -10.58 29.32 -15 30 C-13.5 34 -13.5 34 -11 35 C-7.54199641 35.41673207 -7.54199641 35.41673207 -4 35 C-1.88998841 33.32743384 -1.88998841 33.32743384 -1 31 C-1.33 30.01 -1.66 29.02 -2 28 Z " fill="#131313" transform="translate(113,13)"/>
<path d="M0 0 C3.96 0 7.92 0 12 0 C11.01 0.495 11.01 0.495 10 1 C10 12.55 10 24.1 10 36 C15.94 36 21.88 36 28 36 C28 38.31 28 40.62 28 43 C18.76 43 9.52 43 0 43 C0 28.81 0 14.62 0 0 Z " fill="#030303" transform="translate(152,13)"/>
<path d="M0 0 C2.64470463 2.8713936 3 4.12702922 3 8 C3.99 8.495 3.99 8.495 5 9 C5 9.99 5 10.98 5 12 C6.32 12.33 7.64 12.66 9 13 C9.75 14.75 9.75 14.75 10 17 C8.0107024 19.52487772 6.11888735 20.93364427 3.3125 22.5 C0.83366727 23.78099598 0.83366727 23.78099598 0.1875 26.1875 C0.0946875 27.0846875 0.0946875 27.0846875 0 28 C-1.65 28.33 -3.3 28.66 -5 29 C-5.33 34.94 -5.66 40.88 -6 47 C-6.33 47 -6.66 47 -7 47 C-7 35.45 -7 23.9 -7 12 C-9.64 11.67 -12.28 11.34 -15 11 C-15 10.67 -15 10.34 -15 10 C-13.35 10 -11.7 10 -10 10 C-10.061875 9.236875 -10.12375 8.47375 -10.1875 7.6875 C-9.96596688 4.51219194 -9.28224968 4.04264341 -7 2 C-23.82003519 3.9231793 -40.73808742 6.25765072 -57.14086914 10.56176758 C-59.70007003 11.16501979 -62.12587016 11.09373964 -64.75 11.0625 C-65.73484375 11.05347656 -66.7196875 11.04445313 -67.734375 11.03515625 C-68.48203125 11.02355469 -69.2296875 11.01195312 -70 11 C-66.43062691 8.94800358 -62.83124119 8.15937305 -58.828125 7.2734375 C-58.1457074 7.12089508 -57.46328979 6.96835266 -56.76019287 6.81118774 C-54.59118994 6.32752724 -52.42065847 5.85116926 -50.25 5.375 C-48.77463259 5.04735641 -47.29937084 4.71923665 -45.82421875 4.390625 C-42.21735322 3.58823118 -38.60908111 2.79237635 -35 2 C-35 1.34 -35 0.68 -35 0 C-34.34 0 -33.68 0 -33 0 C-33 0.66 -33 1.32 -33 2 C-32.00033203 1.80083984 -32.00033203 1.80083984 -30.98046875 1.59765625 C-9.70092307 -2.47968327 -9.70092307 -2.47968327 0 0 Z M-3 3 C-2.34 4.32 -1.68 5.64 -1 7 C-0.67 5.68 -0.34 4.36 0 3 C-0.99 3 -1.98 3 -3 3 Z M-9 8 C-9 8.66 -9 9.32 -9 10 C-8.34 9.67 -7.68 9.34 -7 9 C-7.66 8.67 -8.32 8.34 -9 8 Z M0 8 C-0.33 8.66 -0.66 9.32 -1 10 C-0.01 10.33 0.98 10.66 2 11 C1.67 10.01 1.34 9.02 1 8 C0.67 8 0.34 8 0 8 Z M-6 13 C-5.4225 13.28875 -4.845 13.5775 -4.25 13.875 C-3.5075 14.24625 -2.765 14.6175 -2 15 C-0.948125 15.495 -0.948125 15.495 0.125 16 C2 17 2 17 4 19 C4.99 18.34 5.98 17.68 7 17 C7 16.34 7 15.68 7 15 C2.50343896 12.75171948 -1.07872966 12.83317728 -6 13 Z M-6 17 C-6 18.98 -6 20.96 -6 23 C-5.01 22.67 -4.02 22.34 -3 22 C-3.66 20.35 -4.32 18.7 -5 17 C-5.33 17 -5.66 17 -6 17 Z " fill="#DBDBDB" transform="translate(169,2)"/>
<path d="M0 0 C13.86 0 27.72 0 42 0 C42 0.33 42 0.66 42 1 C28.47 1 14.94 1 1 1 C1 14.86 1 28.72 1 43 C2.98 43 4.96 43 7 43 C6.67 44.32 6.34 45.64 6 47 C7.32 47 8.64 47 10 47 C10.474375 46.525625 10.94875 46.05125 11.4375 45.5625 C14.03853566 42.96146434 17.2063191 43.03251931 20.77075195 42.88647461 C21.75003662 42.89171143 22.72932129 42.89694824 23.73828125 42.90234375 C24.80498047 42.90556641 25.87167969 42.90878906 26.97070312 42.91210938 C28.62489258 42.92467773 28.62489258 42.92467773 30.3125 42.9375 C31.43462891 42.94201172 32.55675781 42.94652344 33.71289062 42.95117188 C36.4753151 42.96292687 39.23762998 42.97935923 42 43 C42 43.33 42 43.66 42 44 C33.585 44.495 33.585 44.495 25 45 C24.67 46.65 24.34 48.3 24 50 C21.525 50.495 21.525 50.495 19 51 C18.34 49.35 17.68 47.7 17 46 C16.319375 46.680625 15.63875 47.36125 14.9375 48.0625 C12 50 12 50 8.1875 49.75 C7.135625 49.5025 6.08375 49.255 5 49 C5 48.34 5 47.68 5 47 C2.64828869 47.59861742 0.3140622 48.26924352 -2 49 C-2.33 49.66 -2.66 50.32 -3 51 C-4.98 50.67 -6.96 50.34 -9 50 C-9 49.34 -9 48.68 -9 48 C-10.27875 47.87625 -11.5575 47.7525 -12.875 47.625 C-16.75 47.25 -16.75 47.25 -19 45 C-18.625 41.875 -18.625 41.875 -18 39 C-17.34 39 -16.68 39 -16 39 C-16 38.34 -16 37.68 -16 37 C-15.195625 36.401875 -14.39125 35.80375 -13.5625 35.1875 C-10.76960303 33.29752109 -10.76960303 33.29752109 -10.6875 30.625 C-9.82068761 27.3153527 -8.80291132 27.01807394 -6 25.1875 C-2.45468128 22.68881704 -2.45468128 22.68881704 -1.0625 18.5 C-1.041875 17.015 -1.02125 15.53 -1 14 C-0.67 9.38 -0.34 4.76 0 0 Z M-8 29 C-8 29.99 -8 30.98 -8 32 C-5.0280615 30.87548273 -2.66559313 29.77706209 0 28 C0 27.34 0 26.68 0 26 C-3.08009879 26 -5.31135136 27.5972268 -8 29 Z M-1 31 C-1.99 31.66 -2.98 32.32 -4 33 C-2.68 33.33 -1.36 33.66 0 34 C-0.33 33.01 -0.66 32.02 -1 31 Z M-13.125 38.5 C-14.07375 39.325 -15.0225 40.15 -16 41 C-15.67 42.32 -15.34 43.64 -15 45 C-12.58354218 45.16687448 -12.58354218 45.16687448 -10 45 C-9.34 44.34 -8.68 43.68 -8 43 C-5.375 42.875 -5.375 42.875 -3 43 C-2.67 43.66 -2.34 44.32 -2 45 C-1.01 44.67 -0.02 44.34 1 44 C0.67 41.69 0.34 39.38 0 37 C-1.65 36.67 -3.3 36.34 -5 36 C-5.33 36.99 -5.66 37.98 -6 39 C-6.66 38.01 -7.32 37.02 -8 36 C-10.58926331 36 -11.20051661 36.82653618 -13.125 38.5 Z " fill="#CDCDCD" transform="translate(19,13)"/>
<path d="M0 0 C1.98 0 3.96 0 6 0 C5.67 1.32 5.34 2.64 5 4 C6.32 4 7.64 4 9 4 C9.474375 3.525625 9.94875 3.05125 10.4375 2.5625 C13.03853566 -0.03853566 16.2063191 0.03251931 19.77075195 -0.11352539 C20.75003662 -0.10828857 21.72932129 -0.10305176 22.73828125 -0.09765625 C23.80498047 -0.09443359 24.87167969 -0.09121094 25.97070312 -0.08789062 C27.62489258 -0.07532227 27.62489258 -0.07532227 29.3125 -0.0625 C30.43462891 -0.05798828 31.55675781 -0.05347656 32.71289062 -0.04882812 C35.4753151 -0.03707313 38.23762998 -0.02064077 41 0 C41 0.33 41 0.66 41 1 C32.585 1.495 32.585 1.495 24 2 C23.67 3.65 23.34 5.3 23 7 C21.35 7.33 19.7 7.66 18 8 C17.34 6.35 16.68 4.7 16 3 C15.319375 3.680625 14.63875 4.36125 13.9375 5.0625 C11 7 11 7 7.1875 6.75 C6.135625 6.5025 5.08375 6.255 4 6 C4 5.34 4 4.68 4 4 C1.64828869 4.59861742 -0.6859378 5.26924352 -3 6 C-3.33 6.66 -3.66 7.32 -4 8 C-6.97 7.505 -6.97 7.505 -10 7 C-10 6.34 -10 5.68 -10 5 C-11.65 5 -13.3 5 -15 5 C-15 4.34 -15 3.68 -15 3 C-9.69276568 1.57294366 -5.46108889 0.5997208 0 2 C0 1.34 0 0.68 0 0 Z " fill="#D5D5D5" transform="translate(20,56)"/>
<path d="M0 0 C0.625 2.0625 0.625 2.0625 1 4 C-5.625 7 -5.625 7 -9 7 C-9 9.31 -9 11.62 -9 14 C-10.65 14 -12.3 14 -14 14 C-14 14.66 -14 15.32 -14 16 C-14.66 16 -15.32 16 -16 16 C-16 15.34 -16 14.68 -16 14 C-17.98 14 -19.96 14 -22 14 C-22 14.66 -22 15.32 -22 16 C-22.99 16 -23.98 16 -25 16 C-25 18.31 -25 20.62 -25 23 C-24.34 22.67 -23.68 22.34 -23 22 C-21.40737934 21.84824451 -19.80935144 21.75099675 -18.2109375 21.68359375 C-17.26992188 21.64169922 -16.32890625 21.59980469 -15.359375 21.55664062 C-14.37453125 21.51732422 -13.3896875 21.47800781 -12.375 21.4375 C-11.38242187 21.39431641 -10.38984375 21.35113281 -9.3671875 21.30664062 C-6.91160162 21.20038931 -4.45591297 21.09835036 -2 21 C-2.66 22.32 -3.32 23.64 -4 25 C-4.66 24.67 -5.32 24.34 -6 24 C-5.67 25.32 -5.34 26.64 -5 28 C-5.66 28 -6.32 28 -7 28 C-7 26.68 -7 25.36 -7 24 C-13.27 24 -19.54 24 -26 24 C-26 20.37 -26 16.74 -26 13 C-20.72 13 -15.44 13 -10 13 C-10 10.69 -10 8.38 -10 6 C-13.96 6 -17.92 6 -22 6 C-18.29592395 3.53061597 -14.67963641 2.54817625 -10.4375 1.3125 C-9.65697266 1.07466797 -8.87644531 0.83683594 -8.07226562 0.59179688 C-2.24524715 -1.12262357 -2.24524715 -1.12262357 0 0 Z " fill="#C5C5C5" transform="translate(56,25)"/>
<path d="M0 0 C0 0.66 0 1.32 0 2 C0.66 2 1.32 2 2 2 C2 2.66 2 3.32 2 4 C-0.31 3.67 -2.62 3.34 -5 3 C-5 3.66 -5 4.32 -5 5 C-7.97 5 -10.94 5 -14 5 C-14.33 5.66 -14.66 6.32 -15 7 C-13.68 7.33 -12.36 7.66 -11 8 C-11 8.66 -11 9.32 -11 10 C-12.32 10.33 -13.64 10.66 -15 11 C-15.33 10.01 -15.66 9.02 -16 8 C-17.12019531 8.17917969 -18.24039063 8.35835937 -19.39453125 8.54296875 C-20.8670593 8.75868942 -22.33972307 8.97348512 -23.8125 9.1875 C-24.55048828 9.30802734 -25.28847656 9.42855469 -26.04882812 9.55273438 C-28.20703125 9.85546875 -28.20703125 9.85546875 -32 10 C-32.99 9.01 -33.98 8.02 -35 7 C-31.7 6.34 -28.4 5.68 -25 5 C-25 4.34 -25 3.68 -25 3 C-24.01 3 -23.02 3 -22 3 C-22 3.66 -22 4.32 -22 5 C-20.35 5 -18.7 5 -17 5 C-16.67 4.01 -16.34 3.02 -16 2 C-10.63636982 -0.12310361 -5.71642118 -0.23332331 0 0 Z M-9 1 C-9 1.66 -9 2.32 -9 3 C-9.99 3.495 -9.99 3.495 -11 4 C-10.01 4 -9.02 4 -8 4 C-8.33 3.01 -8.66 2.02 -9 1 Z " fill="#F2F2F2" transform="translate(150,8)"/>
<path d="M0 0 C5.61 0 11.22 0 17 0 C17 2.31 17 4.62 17 7 C11.39 7 5.78 7 0 7 C0 4.69 0 2.38 0 0 Z " fill="#030303" transform="translate(129,34)"/>
<path d="M0 0 C0.66 0 1.32 0 2 0 C2 11.55 2 23.1 2 35 C11.24 35 20.48 35 30 35 C30 32.69 30 30.38 30 28 C30.33 28 30.66 28 31 28 C31 30.64 31 33.28 31 36 C21.1 36 11.2 36 1 36 C1 29.73 1 23.46 1 17 C0.34 17 -0.32 17 -1 17 C-1 16.01 -1 15.02 -1 14 C-0.34 14 0.32 14 1 14 C0.67 13.34 0.34 12.68 0 12 C-0.99 12.165 -1.98 12.33 -3 12.5 C-7.02732942 13.08474517 -10.93474623 13.07132024 -15 13 C-11.7188698 10.81257986 -9.66915644 10.45557194 -5.8125 9.875 C-4.72582031 9.70742188 -3.63914063 9.53984375 -2.51953125 9.3671875 C-1.68808594 9.24601562 -0.85664063 9.12484375 0 9 C0 6.03 0 3.06 0 0 Z " fill="#D8D8D8" transform="translate(150,21)"/>
<path d="M0 0 C0.33 0 0.66 0 1 0 C1.33 3.63 1.66 7.26 2 11 C6.29 9.68 10.58 8.36 15 7 C15.33 5.35 15.66 3.7 16 2 C16.33 2 16.66 2 17 2 C17.05437607 3.58294782 17.09296271 5.16644256 17.125 6.75 C17.14820312 7.63171875 17.17140625 8.5134375 17.1953125 9.421875 C16.99139502 12.1135858 16.36551721 13.69904974 15 16 C14.67 15.67 14.34 15.34 14 15 C11.19864475 15.52012133 8.437665 16.1689916 5.6640625 16.8203125 C3 17 3 17 1.16015625 16.00390625 C-0.60807829 12.94968295 -0.28351228 10.30094634 -0.1875 6.8125 C-0.16042969 5.54019531 -0.13335937 4.26789062 -0.10546875 2.95703125 C-0.07066406 1.98121094 -0.03585938 1.00539063 0 0 Z " fill="#ECECEC" transform="translate(97,27)"/>
<path d="M0 0 C0.33 0 0.66 0 1 0 C1.06058594 1.18078125 1.12117188 2.3615625 1.18359375 3.578125 C1.26802582 5.1354277 1.35267249 6.69271879 1.4375 8.25 C1.47681641 9.02730469 1.51613281 9.80460937 1.55664062 10.60546875 C1.61948242 11.73662109 1.61948242 11.73662109 1.68359375 12.890625 C1.72025146 13.58188477 1.75690918 14.27314453 1.79467773 14.98535156 C2.00675524 17.06628329 2.44508677 18.98572422 3 21 C0 22 0 22 -4 22 C-7 17.92857143 -7 17.92857143 -7 15 C-7.66 15 -8.32 15 -9 15 C-8.67 13.68 -8.34 12.36 -8 11 C-5.69 10.34 -3.38 9.68 -1 9 C-0.67 6.03 -0.34 3.06 0 0 Z " fill="#303030" transform="translate(86,27)"/>
<path d="M0 0 C2.31 0.33 4.62 0.66 7 1 C7.75 2.75 7.75 2.75 8 5 C6.0107024 7.52487772 4.11888735 8.93364427 1.3125 10.5 C-1.16633273 11.78099598 -1.16633273 11.78099598 -1.8125 14.1875 C-1.874375 14.785625 -1.93625 15.38375 -2 16 C-3.65 16.33 -5.3 16.66 -7 17 C-7.33 22.94 -7.66 28.88 -8 35 C-8.33 35 -8.66 35 -9 35 C-9 27.41 -9 19.82 -9 12 C-6.69 11.34 -4.38 10.68 -2 10 C-2.33 8.68 -2.66 7.36 -3 6 C-2.01 6 -1.02 6 0 6 C0 6.66 0 7.32 0 8 C0.66 8 1.32 8 2 8 C2 7.34 2 6.68 2 6 C3.5 4.375 3.5 4.375 5 3 C3.35 2.67 1.7 2.34 0 2 C0 1.34 0 0.68 0 0 Z " fill="#D5D5D5" transform="translate(171,14)"/>
<path d="M0 0 C3.3 0 6.6 0 10 0 C10 1.98 10 3.96 10 6 C9.34 6 8.68 6 8 6 C8 6.99 8 7.98 8 9 C5.09399739 10.25664978 3.20395416 11 0 11 C-2.08387097 6.58709677 -2.08387097 6.58709677 -1.6875 3.8125 C-1 2 -1 2 0 0 Z " fill="#EBEBEB" transform="translate(6,28)"/>
<path d="M0 0 C1.32 0.33 2.64 0.66 4 1 C4 1.99 4 2.98 4 4 C1.69 4.66 -0.62 5.32 -3 6 C-2.38125 6.2475 -1.7625 6.495 -1.125 6.75 C1.35068687 8.20628639 1.95125002 9.37812506 3 12 C2.34 12 1.68 12 1 12 C1 11.34 1 10.68 1 10 C0.01 10 -0.98 10 -2 10 C-1.67 11.32 -1.34 12.64 -1 14 C-3.64738916 15.4606285 -4.89448334 16 -8 16 C-8 12.04 -8 8.08 -8 4 C-2 1 -2 1 0 1 C0 0.67 0 0.34 0 0 Z M-7 9 C-7 10.98 -7 12.96 -7 15 C-6.01 14.67 -5.02 14.34 -4 14 C-4.66 12.35 -5.32 10.7 -6 9 C-6.33 9 -6.66 9 -7 9 Z " fill="#FAFAFA" transform="translate(170,10)"/>
<path d="M0 0 C-0.66 0 -1.32 0 -2 0 C-2 0.66 -2 1.32 -2 2 C-1.34 2.33 -0.68 2.66 0 3 C-0.680625 2.87625 -1.36125 2.7525 -2.0625 2.625 C-6.38160324 3.17637488 -9.2199097 5.70715529 -12 9 C-12 9.99 -12 10.98 -12 12 C-9.58354218 12.16687448 -9.58354218 12.16687448 -7 12 C-6.34 11.34 -5.68 10.68 -5 10 C-1.375 10.375 -1.375 10.375 2 11 C1.67 11.66 1.34 12.32 1 13 C-1.5 13.5625 -1.5 13.5625 -5 14 C-5.76828125 14.11601563 -6.5365625 14.23203125 -7.328125 14.3515625 C-8.52695313 14.51785156 -8.52695313 14.51785156 -9.75 14.6875 C-10.50796875 14.79449219 -11.2659375 14.90148438 -12.046875 15.01171875 C-14 15 -14 15 -16 13 C-15.625 9.875 -15.625 9.875 -15 7 C-14.34 7 -13.68 7 -13 7 C-13 6.34 -13 5.68 -13 5 C-10.91796875 3.45703125 -10.91796875 3.45703125 -8.1875 1.8125 C-7.29417969 1.26207031 -6.40085937 0.71164063 -5.48046875 0.14453125 C-3 -1 -3 -1 0 0 Z " fill="#CDCDCD" transform="translate(16,45)"/>
<path d="M0 0 C0.625 2.0625 0.625 2.0625 1 4 C-4.51223979 6.81768894 -8.33009038 7.31891563 -14.4375 6.6875 C-15.16904297 6.62626953 -15.90058594 6.56503906 -16.65429688 6.50195312 C-18.43761042 6.35042975 -20.21907951 6.17745066 -22 6 C-18.29592395 3.53061597 -14.67963641 2.54817625 -10.4375 1.3125 C-9.65697266 1.07466797 -8.87644531 0.83683594 -8.07226562 0.59179688 C-2.24524715 -1.12262357 -2.24524715 -1.12262357 0 0 Z " fill="#E7E7E7" transform="translate(56,25)"/>
<path d="M0 0 C0.33 0.66 0.66 1.32 1 2 C3.02463255 2.65213292 3.02463255 2.65213292 5 3 C5 3.66 5 4.32 5 5 C3.68 5.33 2.36 5.66 1 6 C0.67 5.01 0.34 4.02 0 3 C-1.12019531 3.17917969 -2.24039063 3.35835937 -3.39453125 3.54296875 C-4.8670593 3.75868942 -6.33972307 3.97348512 -7.8125 4.1875 C-8.55048828 4.30802734 -9.28847656 4.42855469 -10.04882812 4.55273438 C-15.54974762 5.32435657 -15.54974762 5.32435657 -18.01171875 3.55078125 C-18.33785156 3.03902344 -18.66398437 2.52726563 -19 2 C-15.70039859 0.3501993 -12.00872116 0.61741639 -8.375 0.4375 C-7.57320312 0.39431641 -6.77140625 0.35113281 -5.9453125 0.30664062 C-3.9637489 0.20048543 -1.98189729 0.09973145 0 0 Z " fill="#CCCCCC" transform="translate(134,13)"/>
<path d="M0 0 C0.99 0 1.98 0 3 0 C3 6.27 3 12.54 3 19 C2.67 19 2.34 19 2 19 C2 16.69 2 14.38 2 12 C0.35 11.67 -1.3 11.34 -3 11 C-3.33 12.65 -3.66 14.3 -4 16 C-6 13 -6 13 -7 10 C-6.360625 9.87625 -5.72125 9.7525 -5.0625 9.625 C-4.381875 9.41875 -3.70125 9.2125 -3 9 C-2.67 8.34 -2.34 7.68 -2 7 C-0.68 7.66 0.64 8.32 2 9 C0.74458443 6.48916886 -0.50063488 6.12874554 -3 5 C-2.360625 4.71125 -1.72125 4.4225 -1.0625 4.125 C1.15206079 3.17176549 1.15206079 3.17176549 2 1 C1.34 0.67 0.68 0.34 0 0 Z " fill="#EBEBEB" transform="translate(17,38)"/>
<path d="M0 0 C-1.7578125 0.94401042 -3.515625 1.88802083 -5.2734375 2.83203125 C-7.30502365 4.04763493 -7.30502365 4.04763493 -9 7 C-10.9453125 7.51171875 -10.9453125 7.51171875 -13.125 7.6875 C-15.043125 7.8421875 -15.043125 7.8421875 -17 8 C-15.51654179 3.20057637 -15.51654179 3.20057637 -14 1 C-10.5625 0.125 -10.5625 0.125 -7 0 C-5.88625 -0.309375 -5.88625 -0.309375 -4.75 -0.625 C-3 -1 -3 -1 0 0 Z " fill="#D2D2D2" transform="translate(99,14)"/>
<path d="M0 0 C3.63 0 7.26 0 11 0 C11.33 0.99 11.66 1.98 12 3 C11.01 3.33 10.02 3.66 9 4 C9.66 5.65 10.32 7.3 11 9 C10 10 10 10 7.71484375 10.09765625 C6.34005859 10.08025391 6.34005859 10.08025391 4.9375 10.0625 C4.01839844 10.05347656 3.09929687 10.04445313 2.15234375 10.03515625 C1.44207031 10.02355469 0.73179687 10.01195312 0 10 C0 9.67 0 9.34 0 9 C1.65 9 3.3 9 5 9 C4.938125 8.236875 4.87625 7.47375 4.8125 6.6875 C5 4 5 4 6.5 2.1875 C6.995 1.795625 7.49 1.40375 8 1 C5.36 1 2.72 1 0 1 C0 0.67 0 0.34 0 0 Z M6 7 C6 7.66 6 8.32 6 9 C6.66 8.67 7.32 8.34 8 8 C7.34 7.67 6.68 7.34 6 7 Z " fill="#F4F4F4" transform="translate(154,3)"/>
<path d="M0 0 C0.33 0 0.66 0 1 0 C1 4.95 1 9.9 1 15 C0.34 15 -0.32 15 -1 15 C-1 14.34 -1 13.68 -1 13 C-2.32 13.33 -3.64 13.66 -5 14 C-5 14.99 -5 15.98 -5 17 C-5.66 17 -6.32 17 -7 17 C-7 16.34 -7 15.68 -7 15 C-7.66 15 -8.32 15 -9 15 C-8.67 13.68 -8.34 12.36 -8 11 C-5.69 10.34 -3.38 9.68 -1 9 C-0.67 6.03 -0.34 3.06 0 0 Z " fill="#DFDFDF" transform="translate(86,27)"/>
<path d="M0 0 C7.92 0 15.84 0 24 0 C24 0.33 24 0.66 24 1 C15.585 1.495 15.585 1.495 7 2 C6.67 3.65 6.34 5.3 6 7 C4.35 7.33 2.7 7.66 1 8 C0.67 7.01 0.34 6.02 0 5 C2.475 5.495 2.475 5.495 5 6 C3.63016497 2.83884224 3.0109362 2.0072908 0 0 Z " fill="#BCBCBC" transform="translate(37,56)"/>
<path d="M0 0 C0.625 2.0625 0.625 2.0625 1 4 C-1.62315032 5.31157516 -3.23033436 4.89649988 -6.125 4.5625 C-7.03507812 4.46066406 -7.94515625 4.35882812 -8.8828125 4.25390625 C-9.58148438 4.17011719 -10.28015625 4.08632813 -11 4 C-10.01 3.67 -9.02 3.34 -8 3 C-8 2.34 -8 1.68 -8 1 C-2.25 -1.125 -2.25 -1.125 0 0 Z " fill="#CDCDCD" transform="translate(56,25)"/>
<path d="M0 0 C1.32 0.33 2.64 0.66 4 1 C4 1.99 4 2.98 4 4 C1.24921116 4.91692961 -0.35948913 5.10886083 -3.1875 5.0625 C-5.0746875 5.0315625 -5.0746875 5.0315625 -7 5 C-7 8.3 -7 11.6 -7 15 C-6.34 15.33 -5.68 15.66 -5 16 C-5.99 16 -6.98 16 -8 16 C-8 12.04 -8 8.08 -8 4 C-2 1 -2 1 0 1 C0 0.67 0 0.34 0 0 Z " fill="#E9E9E9" transform="translate(170,10)"/>
<path d="M0 0 C2.15377564 2.62198774 3.40072174 4.64404172 4 8 C1.09399739 9.25664978 -0.79604584 10 -4 10 C-3.52449439 8.51965236 -3.04448784 7.04074979 -2.5625 5.5625 C-2.29566406 4.73878906 -2.02882813 3.91507813 -1.75390625 3.06640625 C-1 1 -1 1 0 0 Z " fill="#D9D9D9" transform="translate(67,42)"/>
<path d="M0 0 C-0.66 1.32 -1.32 2.64 -2 4 C-2.66 3.67 -3.32 3.34 -4 3 C-3.67 4.32 -3.34 5.64 -3 7 C-3.66 7 -4.32 7 -5 7 C-5 5.68 -5 4.36 -5 3 C-10.28 2.67 -15.56 2.34 -21 2 C-21 1.67 -21 1.34 -21 1 C-18.25008168 0.83188272 -15.50007888 0.6654519 -12.75 0.5 C-11.97269531 0.45230469 -11.19539063 0.40460937 -10.39453125 0.35546875 C-9.26337891 0.28779297 -9.26337891 0.28779297 -8.109375 0.21875 C-7.41811523 0.17685547 -6.72685547 0.13496094 -6.01464844 0.09179688 C-4.01161035 0.00052902 -2.0051163 0 0 0 Z " fill="#DDDDDD" transform="translate(54,46)"/>
<path d="M0 0 C1.134375 0.020625 2.26875 0.04125 3.4375 0.0625 C3.1075 1.0525 2.7775 2.0425 2.4375 3.0625 C0.7875 3.3925 -0.8625 3.7225 -2.5625 4.0625 C-2.8925 10.0025 -3.2225 15.9425 -3.5625 22.0625 C-3.8925 22.0625 -4.2225 22.0625 -4.5625 22.0625 C-4.59137814 18.58335059 -4.60925687 15.10423169 -4.625 11.625 C-4.63337891 10.63177734 -4.64175781 9.63855469 -4.65039062 8.61523438 C-4.65361328 7.67099609 -4.65683594 6.72675781 -4.66015625 5.75390625 C-4.66539307 4.87935791 -4.67062988 4.00480957 -4.67602539 3.10375977 C-4.47703798 -0.47416227 -3.71957376 0.06525568 0 0 Z " fill="#DBDBDB" transform="translate(166.5625,26.9375)"/>
<path d="M0 0 C0.33 0 0.66 0 1 0 C1 3.3 1 6.6 1 10 C0.67 9.34 0.34 8.68 0 8 C-0.61488281 8.22816406 -1.22976562 8.45632812 -1.86328125 8.69140625 C-2.67152344 8.97886719 -3.47976562 9.26632813 -4.3125 9.5625 C-5.51326172 9.99755859 -5.51326172 9.99755859 -6.73828125 10.44140625 C-9 11 -9 11 -12 10 C-11.34 10 -10.68 10 -10 10 C-10 9.34 -10 8.68 -10 8 C-7.03 7.01 -4.06 6.02 -1 5 C-0.67 3.35 -0.34 1.7 0 0 Z " fill="#C5C5C5" transform="translate(113,29)"/>
<path d="M0 0 C0.33 0 0.66 0 1 0 C1 7.59 1 15.18 1 23 C-0.32 23.33 -1.64 23.66 -3 24 C-2.68289062 23.02933594 -2.36578125 22.05867188 -2.0390625 21.05859375 C-0.8063663 16.74415704 -0.55865405 12.52758912 -0.375 8.0625 C-0.33632813 7.28326172 -0.29765625 6.50402344 -0.2578125 5.70117188 C-0.16455873 3.80112621 -0.08124038 1.90059722 0 0 Z " fill="#FAFAFA" transform="translate(19,13)"/>
<path d="M0 0 C1.65 0.33 3.3 0.66 5 1 C4.6875 2.9375 4.6875 2.9375 4 5 C3.01 5.33 2.02 5.66 1 6 C1 5.34 1 4.68 1 4 C-2.63 4 -6.26 4 -10 4 C-9.67 3.01 -9.34 2.02 -9 1 C-6.03 1.33 -3.06 1.66 0 2 C0 1.34 0 0.68 0 0 Z " fill="#2A2A2A" transform="translate(145,11)"/>
<path d="M0 0 C1.051875 -0.02126953 1.051875 -0.02126953 2.125 -0.04296875 C4 0.1875 4 0.1875 6 2.1875 C6 3.1775 6 4.1675 6 5.1875 C3.5625 4.8125 3.5625 4.8125 1 4.1875 C0.67 3.5275 0.34 2.8675 0 2.1875 C-0.99 2.1875 -1.98 2.1875 -3 2.1875 C-3.66 2.1875 -4.32 2.1875 -5 2.1875 C-5.33 2.8475 -5.66 3.5075 -6 4.1875 C-6 3.1975 -6 2.2075 -6 1.1875 C-3.77109005 0.07304502 -2.46944894 0.02269714 0 0 Z " fill="#A4A4A4" transform="translate(36,56.8125)"/>
<path d="M0 0 C0.33 0 0.66 0 1 0 C1 8.58 1 17.16 1 26 C0.67 26 0.34 26 0 26 C0 19.73 0 13.46 0 7 C-0.66 7 -1.32 7 -2 7 C-2 6.01 -2 5.02 -2 4 C-1.34 4 -0.68 4 0 4 C0 2.68 0 1.36 0 0 Z " fill="#FBFBFB" transform="translate(151,31)"/>
<path d="M0 0 C1.32 0.33 2.64 0.66 4 1 C3.34 1 2.68 1 2 1 C2 3.64 2 6.28 2 9 C1.01 9.33 0.02 9.66 -1 10 C-1 9.34 -1 8.68 -1 8 C-0.34 8 0.32 8 1 8 C1 7.34 1 6.68 1 6 C-0.98 6 -2.96 6 -5 6 C-4.67 5.01 -4.34 4.02 -4 3 C-3.01 3.33 -2.02 3.66 -1 4 C-0.67 2.68 -0.34 1.36 0 0 Z " fill="#C9C9C9" transform="translate(150,12)"/>
<path d="M0 0 C0.33 0.66 0.66 1.32 1 2 C1.66 2 2.32 2 3 2 C2 5 2 5 0 6 C0.66 6.66 1.32 7.32 2 8 C0.35 8 -1.3 8 -3 8 C-3.33 5.69 -3.66 3.38 -4 1 C-2 0 -2 0 0 0 Z " fill="#B4B4B4" transform="translate(167,6)"/>
<path d="M0 0 C2.33944736 0.28730055 4.6739143 0.61936779 7 1 C6.67 1.66 6.34 2.32 6 3 C1.08633089 4.10557555 -3.99341361 4.47708987 -9 5 C-6.53473114 2.53473114 -4.28518427 2.04846307 -1 1 C-0.67 0.67 -0.34 0.34 0 0 Z " fill="#F5F5F5" transform="translate(11,55)"/>
<path d="M0 0 C0.33 0 0.66 0 1 0 C1.33 3.63 1.66 7.26 2 11 C3.32 11.33 4.64 11.66 6 12 C5.34 12 4.68 12 4 12 C4 12.66 4 13.32 4 14 C4.99 14.33 5.98 14.66 7 15 C5.00045254 15.04254356 2.99958364 15.04080783 1 15 C0 14 0 14 -0.09765625 10.83984375 C-0.08025391 8.90818359 -0.08025391 8.90818359 -0.0625 6.9375 C-0.05347656 5.64714844 -0.04445313 4.35679688 -0.03515625 3.02734375 C-0.02355469 2.02832031 -0.01195313 1.02929688 0 0 Z " fill="#D9D9D9" transform="translate(97,27)"/>
<path d="M0 0 C0.99 0 1.98 0 3 0 C3 0.66 3 1.32 3 2 C3.66 2 4.32 2 5 2 C5 2.66 5 3.32 5 4 C1.44239635 6.61588503 -1.64477147 7.49357808 -6 8 C-6 7.34 -6 6.68 -6 6 C-3.69 5.34 -1.38 4.68 1 4 C0.67 2.68 0.34 1.36 0 0 Z " fill="#B1B1B1" transform="translate(168,20)"/>
<path d="M0 0 C1.98 0 3.96 0 6 0 C6.33 1.32 6.66 2.64 7 4 C8.65 4 10.3 4 12 4 C12.33 4.66 12.66 5.32 13 6 C11.3125 6.6875 11.3125 6.6875 9 7 C6.25 5.75 6.25 5.75 4 4 C4 3.01 4 2.02 4 1 C2.68 0.67 1.36 0.34 0 0 Z " fill="#F6F6F6" transform="translate(138,14)"/>
<path d="M0 0 C0 0.99 0 1.98 0 3 C-0.66 3.66 -1.32 4.32 -2 5 C-5.625 4.625 -5.625 4.625 -9 4 C-9 3.34 -9 2.68 -9 2 C-9.99 1.67 -10.98 1.34 -12 1 C-4.25 1.875 -4.25 1.875 -2 3 C-2 2.34 -2 1.68 -2 1 C-1.34 0.67 -0.68 0.34 0 0 Z " fill="#F4F4F4" transform="translate(33,58)"/>
<path d="M0 0 C0 0.66 0 1.32 0 2 C-5.41538462 5.07692308 -5.41538462 5.07692308 -8.375 4.6875 C-8.91125 4.460625 -9.4475 4.23375 -10 4 C-9 2 -9 2 -6.6875 0.875 C-4 0 -4 0 0 0 Z " fill="#D9D9D9" transform="translate(149,21)"/>
<path d="M0 0 C-0.33 0.99 -0.66 1.98 -1 3 C-3.64 3.33 -6.28 3.66 -9 4 C-8.67 3.01 -8.34 2.02 -8 1 C-2.59770115 -1.29885057 -2.59770115 -1.29885057 0 0 Z " fill="#E8E8E8" transform="translate(91,18)"/>
<path d="M0 0 C-3.34939881 2.02558881 -5.86962551 2.21738987 -9.75 2.125 C-10.73484375 2.10695313 -11.7196875 2.08890625 -12.734375 2.0703125 C-13.85585937 2.03550781 -13.85585937 2.03550781 -15 2 C-9.35624932 -0.91918138 -6.18184294 -0.91207519 0 0 Z " fill="#D1D1D1" transform="translate(114,11)"/>
<path d="M0 0 C0.33 1.32 0.66 2.64 1 4 C-2 5 -2 5 -6 5 C-6.33 4.01 -6.66 3.02 -7 2 C-2.25 0 -2.25 0 0 0 Z " fill="#E6E6E6" transform="translate(88,44)"/>
<path d="M0 0 C4.29 0 8.58 0 13 0 C13.33 0.99 13.66 1.98 14 3 C12.68 3.33 11.36 3.66 10 4 C9.67 3.01 9.34 2.02 9 1 C6.03 1 3.06 1 0 1 C0 0.67 0 0.34 0 0 Z " fill="#F4F4F4" transform="translate(125,15)"/>
<path d="M0 0 C0.33 0.53625 0.66 1.0725 1 1.625 C0.67 2.285 0.34 2.945 0 3.625 C-1.32 3.625 -2.64 3.625 -4 3.625 C-4 2.965 -4 2.305 -4 1.625 C-5.98 1.625 -7.96 1.625 -10 1.625 C-10 1.295 -10 0.965 -10 0.625 C-2.49230769 -1.71346154 -2.49230769 -1.71346154 0 0 Z " fill="#5F5F5F" transform="translate(15,58.375)"/>
<path d="M0 0 C1.32 0.33 2.64 0.66 4 1 C3.67 2.65 3.34 4.3 3 6 C1.35 6.33 -0.3 6.66 -2 7 C-2.33 6.01 -2.66 5.02 -3 4 C-0.525 4.495 -0.525 4.495 2 5 C1.34 3.35 0.68 1.7 0 0 Z " fill="#F8F8F8" transform="translate(40,57)"/>
<path d="M0 0 C0.33 0.99 0.66 1.98 1 3 C-1.90600261 4.25664978 -3.79604584 5 -7 5 C-7 4.01 -7 3.02 -7 2 C-4.69 1.34 -2.38 0.68 0 0 Z " fill="#FBFBFB" transform="translate(13,34)"/>
<path d="M0 0 C0.99 1.32 1.98 2.64 3 4 C2.01 5.485 2.01 5.485 1 7 C0.01 6.67 -0.98 6.34 -2 6 C-2.6875 3.9375 -2.6875 3.9375 -3 2 C-2.01 2 -1.02 2 0 2 C0 1.34 0 0.68 0 0 Z " fill="#151515" transform="translate(9,29)"/>
<path d="M0 0 C0.33 0.66 0.66 1.32 1 2 C0.01 2 -0.98 2 -2 2 C-2 2.66 -2 3.32 -2 4 C-3.65 4.33 -5.3 4.66 -7 5 C-6.3125 3.0625 -6.3125 3.0625 -5 1 C-2.375 0.25 -2.375 0.25 0 0 Z " fill="#D5D5D5" transform="translate(19,36)"/>
<path d="M0 0 C2.31 0 4.62 0 7 0 C6.67 0.99 6.34 1.98 6 3 C4.02 3.33 2.04 3.66 0 4 C0 2.68 0 1.36 0 0 Z " fill="#F9F9F9" transform="translate(163,27)"/>
<path d="M0 0 C0.99 0 1.98 0 3 0 C3 0.66 3 1.32 3 2 C2.01 2 1.02 2 0 2 C0 1.34 0 0.68 0 0 Z " fill="#F0F0F0" transform="translate(175,23)"/>
<path d="M0 0 C0.66 0 1.32 0 2 0 C2 0.66 2 1.32 2 2 C1.34 2 0.68 2 0 2 C0 1.34 0 0.68 0 0 Z " fill="#F3F3F3" transform="translate(8,53)"/>
<path d="M0 0 C0.66 0 1.32 0 2 0 C2 0.66 2 1.32 2 2 C1.34 2 0.68 2 0 2 C0 1.34 0 0.68 0 0 Z " fill="#F0F0F0" transform="translate(136,0)"/>
<path d="M0 0 C0.66 0 1.32 0 2 0 C1.67 0.66 1.34 1.32 1 2 C0.67 1.34 0.34 0.68 0 0 Z " fill="#E0E0E0" transform="translate(6,64)"/>
<path d="M0 0 C0.66 0 1.32 0 2 0 C1.67 0.66 1.34 1.32 1 2 C0.67 1.34 0.34 0.68 0 0 Z " fill="#F8F8F8" transform="translate(19,63)"/>
<path d="M0 0 C2 1 2 1 2 1 Z " fill="#FDFDFD" transform="translate(7,56)"/>
<path d="M0 0 C2 1 2 1 2 1 Z " fill="#FCFCFC" transform="translate(5,53)"/>
<path d="" fill="#F7F7F7" transform="translate(0,0)"/>
<path d="M0 0 C2 1 2 1 2 1 Z " fill="#FDFDFD" transform="translate(155,5)"/>
<path d="M0 0 C2 1 2 1 2 1 Z " fill="#FEFEFE" transform="translate(151,0)"/>
<path d="" fill="#FFFFFF" transform="translate(0,0)"/>
<path d="" fill="#FBFBFB" transform="translate(0,0)"/>
<path d="" fill="#FFFFFF" transform="translate(0,0)"/>
<path d="" fill="#F1F1F1" transform="translate(0,0)"/>
<path d="" fill="#F9F9F9" transform="translate(0,0)"/>
<path d="" fill="#FBFBFB" transform="translate(0,0)"/>
</svg>
